<svg id="visual" viewBox="0 0 2000 300" width="2000" height="300" xmlns="http://www.w3.org/2000/svg" xmlns:xlink="http://www.w3.org/1999/xlink" version="1.1"><rect x="0" y="0" width="2000" height="300" fill="#f7931a"></rect><path d="M0 57L47.7 53.5C95.3 50 190.7 43 285.8 38.7C381 34.3 476 32.7 571.2 30.7C666.3 28.7 761.7 26.3 857 30.7C952.3 35 1047.7 46 1143 45.7C1238.3 45.3 1333.7 33.7 1428.8 34.2C1524 34.7 1619 47.3 1714.2 48C1809.3 48.7 1904.7 37.3 1952.3 31.7L2000 26L2000 0L1952.3 0C1904.7 0 1809.3 0 1714.2 0C1619 0 1524 0 1428.8 0C1333.7 0 1238.3 0 1143 0C1047.7 0 952.3 0 857 0C761.7 0 666.3 0 571.2 0C476 0 381 0 285.8 0C190.7 0 95.3 0 47.7 0L0 0Z" fill="#fff" stroke-linecap="round" stroke-linejoin="miter"></path></svg>